<svg width="181" height="851" viewBox="0 0 181 851" fill="none" xmlns="http://www.w3.org/2000/svg">
<path d="M181 783.768C181 796.434 178.833 807.768 174.5 817.768C170.167 827.601 163.833 835.434 155.5 841.268C147.167 847.101 137.083 850.101 125.25 850.268L125.25 813.268C130.25 813.101 134.75 811.851 138.75 809.518C142.75 807.018 145.917 803.601 148.25 799.268C150.583 794.934 151.75 789.851 151.75 784.018C151.75 778.851 150.917 774.434 149.25 770.768C147.583 766.934 145.25 764.018 142.25 762.018C139.25 759.851 135.583 758.768 131.25 758.768C126.583 758.768 122.583 760.018 119.25 762.518C115.917 764.851 113.083 768.101 110.75 772.268C108.417 776.434 106.333 781.268 104.5 786.768C102.5 792.101 100.5 797.851 98.5 804.018C94 817.851 88 828.434 80.5 835.768C73 842.934 63 846.518 50.5 846.518C39.8333 846.518 30.75 844.018 23.25 839.018C15.75 833.851 9.99999 826.768 5.99999 817.768C1.99999 808.601 -5.86419e-06 798.268 -6.36687e-06 786.768C-6.88412e-06 774.934 2.08332 764.518 6.24999 755.518C10.25 746.518 16.0833 739.434 23.75 734.268C31.4167 728.934 40.5 726.101 51 725.768L51 763.268C47.1667 763.434 43.6667 764.518 40.5 766.518C37.1667 768.518 34.5 771.268 32.5 774.768C30.5 778.268 29.5 782.434 29.5 787.268C29.3333 791.434 30 795.268 31.5 798.768C32.8333 802.101 34.9167 804.768 37.75 806.768C40.4167 808.768 43.8333 809.768 48 809.768C52.1667 809.768 55.6667 808.768 58.5 806.768C61.1667 804.768 63.5 802.018 65.5 798.518C67.5 794.851 69.4167 790.601 71.25 785.768C72.9167 780.934 74.6667 775.684 76.5 770.018C79.5 761.184 83.0833 753.101 87.25 745.768C91.25 738.434 96.5 732.601 103 728.268C109.5 723.768 118.083 721.518 128.75 721.518C138.083 721.518 146.75 723.934 154.75 728.768C162.583 733.601 168.917 740.601 173.75 749.768C178.583 758.934 181 770.268 181 783.768ZM178 582.656L2.99998 582.656L2.99997 547.656L178 547.656L178 582.656ZM178 692.906L2.99998 692.906L2.99998 657.906L178 657.906L178 692.906ZM102.75 662.406L74.5 662.406L74.5 576.906L102.75 576.906L102.75 662.406ZM181 432.707C181 449.707 177.167 464.707 169.5 477.707C161.833 490.707 151.25 500.957 137.75 508.457C124.083 515.79 108.333 519.457 90.5 519.457C72.6666 519.457 57 515.79 43.5 508.457C29.8333 500.957 19.1666 490.707 11.5 477.707C3.83331 464.707 -2.11003e-05 449.707 -2.18433e-05 432.707C-2.25937e-05 415.54 3.83331 400.457 11.5 387.457C19.1666 374.29 29.8333 364.124 43.5 356.957C57 349.624 72.6666 345.957 90.5 345.957C108.333 345.957 124.083 349.624 137.75 356.957C151.25 364.124 161.833 374.29 169.5 387.457C177.167 400.457 181 415.54 181 432.707ZM149.5 432.707C149.5 422.207 147.083 413.124 142.25 405.457C137.417 397.79 130.667 391.874 122 387.707C113.167 383.54 102.667 381.457 90.5 381.457C78.3333 381.457 67.9166 383.54 59.25 387.707C50.4166 391.874 43.5833 397.79 38.75 405.457C33.9166 413.124 31.5 422.207 31.5 432.707C31.5 443.04 33.9166 452.04 38.75 459.707C43.5833 467.207 50.4166 473.124 59.25 477.457C67.9166 481.624 78.3333 483.707 90.5 483.707C102.667 483.707 113.167 481.624 122 477.457C130.667 473.124 137.417 467.207 142.25 459.707C147.083 452.04 149.5 443.04 149.5 432.707ZM181 236.418C181 253.418 177.167 268.418 169.5 281.418C161.833 294.418 151.25 304.668 137.75 312.168C124.083 319.501 108.333 323.168 90.5 323.168C72.6666 323.168 57 319.501 43.5 312.168C29.8333 304.668 19.1666 294.418 11.5 281.418C3.8333 268.418 -2.96803e-05 253.418 -3.04234e-05 236.418C-3.11738e-05 219.251 3.8333 204.168 11.5 191.168C19.1666 178.001 29.8333 167.835 43.5 160.668C57 153.335 72.6666 149.668 90.5 149.668C108.333 149.668 124.083 153.335 137.75 160.668C151.25 167.835 161.833 178.001 169.5 191.168C177.167 204.168 181 219.251 181 236.418ZM149.5 236.418C149.5 225.918 147.083 216.835 142.25 209.168C137.417 201.501 130.667 195.585 122 191.418C113.167 187.251 102.667 185.168 90.5 185.168C78.3333 185.168 67.9166 187.251 59.25 191.418C50.4166 195.585 43.5833 201.501 38.75 209.168C33.9166 216.835 31.5 225.918 31.5 236.418C31.5 246.751 33.9166 255.751 38.75 263.418C43.5833 270.918 50.4166 276.835 59.25 281.168C67.9166 285.335 78.3333 287.418 90.5 287.418C102.667 287.418 113.167 285.335 122 281.168C130.667 276.835 137.417 270.918 142.25 263.418C147.083 255.751 149.5 246.751 149.5 236.418ZM178 85.75L31.25 85.75L31.25 136.75L2.99996 136.75L2.99995 1.85973e-06L31.25 6.24882e-07L31.25 51L178 51L178 85.75Z" fill="#2A2A2A"/>
</svg>
