<svg width="181" height="892" viewBox="0 0 181 892" fill="none" xmlns="http://www.w3.org/2000/svg">
<path d="M181 825.262C181 837.928 178.833 849.262 174.5 859.262C170.167 869.095 163.833 876.928 155.5 882.762C147.167 888.595 137.083 891.595 125.25 891.762L125.25 854.762C130.25 854.595 134.75 853.345 138.75 851.012C142.75 848.512 145.917 845.095 148.25 840.762C150.583 836.428 151.75 831.345 151.75 825.512C151.75 820.345 150.917 815.928 149.25 812.262C147.583 808.428 145.25 805.512 142.25 803.512C139.25 801.345 135.583 800.262 131.25 800.262C126.583 800.262 122.583 801.512 119.25 804.012C115.917 806.345 113.083 809.595 110.75 813.762C108.417 817.928 106.333 822.762 104.5 828.262C102.5 833.595 100.5 839.345 98.5 845.512C94 859.345 88 869.928 80.5 877.262C73 884.428 63 888.012 50.5 888.012C39.8333 888.012 30.75 885.512 23.25 880.512C15.75 875.345 9.99999 868.262 5.99999 859.262C1.99999 850.095 -5.86419e-06 839.762 -6.36687e-06 828.262C-6.88412e-06 816.428 2.08332 806.012 6.24999 797.012C10.25 788.012 16.0833 780.928 23.75 775.762C31.4167 770.428 40.5 767.595 51 767.262L51 804.762C47.1667 804.928 43.6667 806.012 40.5 808.012C37.1667 810.012 34.5 812.762 32.5 816.262C30.5 819.762 29.5 823.928 29.5 828.762C29.3333 832.928 30 836.762 31.5 840.262C32.8333 843.595 34.9167 846.262 37.75 848.262C40.4167 850.262 43.8333 851.262 48 851.262C52.1667 851.262 55.6667 850.262 58.5 848.262C61.1667 846.262 63.5 843.512 65.5 840.012C67.5 836.345 69.4167 832.095 71.25 827.262C72.9167 822.428 74.6667 817.178 76.5 811.512C79.5 802.678 83.0833 794.595 87.25 787.262C91.25 779.928 96.5 774.095 103 769.762C109.5 765.262 118.083 763.012 128.75 763.012C138.083 763.012 146.75 765.428 154.75 770.262C162.583 775.095 168.917 782.095 173.75 791.262C178.583 800.428 181 811.762 181 825.262ZM178 695.115L31.25 695.115L31.25 746.115L2.99998 746.115L2.99998 609.365L31.25 609.365L31.25 660.365L178 660.365L178 695.115ZM181 517.469C181 530.469 178.417 542.219 173.25 552.719C168.083 563.219 160.333 571.635 150 577.969C139.5 584.135 126.25 587.219 110.25 587.219L2.99997 587.219L2.99997 552.219L110.5 552.219C119 552.219 126.083 550.802 131.75 547.969C137.417 545.135 141.75 541.135 144.75 535.969C147.583 530.635 149 524.219 149 516.719C149 509.219 147.583 502.885 144.75 497.719C141.75 492.385 137.417 488.302 131.75 485.469C126.083 482.635 119 481.219 110.5 481.219L2.99997 481.219L2.99997 446.219L110.25 446.219C126.25 446.219 139.5 449.469 150 455.969C160.333 462.302 168.083 470.885 173.25 481.719C178.417 492.552 181 504.469 181 517.469ZM178 414.088L2.99997 414.088L2.99996 354.588C2.99996 334.421 6.66663 317.671 14 304.338C21.1666 291.005 31.3333 281.171 44.5 274.838C57.5 268.338 72.8333 265.088 90.5 265.088C108 265.088 123.333 268.338 136.5 274.838C149.667 281.171 159.917 291.005 167.25 304.338C174.417 317.505 178 334.338 178 354.838L178 414.088ZM148 379.088L148 356.588C148 342.588 145.75 331.588 141.25 323.588C136.583 315.421 130 309.588 121.5 306.088C112.833 302.588 102.5 300.838 90.5 300.838C78.5 300.838 68.25 302.588 59.75 306.088C51.0833 309.588 44.4166 315.421 39.75 323.588C35.0833 331.588 32.75 342.588 32.75 356.588L32.75 379.088L148 379.088ZM178 236.842L2.99996 236.842L2.99996 201.842L178 201.842L178 236.842ZM181 86.75C181 103.75 177.167 118.75 169.5 131.75C161.833 144.75 151.25 155 137.75 162.5C124.083 169.833 108.333 173.5 90.5 173.5C72.6666 173.5 57 169.833 43.5 162.5C29.8333 155 19.1666 144.75 11.5 131.75C3.8333 118.75 -3.80363e-05 103.75 -3.87794e-05 86.75C-3.95298e-05 69.5833 3.83329 54.5 11.5 41.5C19.1666 28.3333 29.8333 18.1667 43.4999 11C57 3.66666 72.6666 -6.54992e-06 90.5 -7.32944e-06C108.333 -8.10896e-06 124.083 3.66666 137.75 11C151.25 18.1667 161.833 28.3333 169.5 41.5C177.167 54.5 181 69.5833 181 86.75ZM149.5 86.75C149.5 76.25 147.083 67.1667 142.25 59.5C137.417 51.8333 130.667 45.9167 122 41.75C113.167 37.5833 102.667 35.5 90.5 35.5C78.3333 35.5 67.9166 37.5833 59.25 41.75C50.4166 45.9167 43.5833 51.8333 38.75 59.5C33.9166 67.1667 31.5 76.25 31.5 86.75C31.5 97.0833 33.9166 106.083 38.75 113.75C43.5833 121.25 50.4166 127.167 59.25 131.5C67.9166 135.667 78.3333 137.75 90.5 137.75C102.667 137.75 113.167 135.667 122 131.5C130.667 127.167 137.417 121.25 142.25 113.75C147.083 106.083 149.5 97.0833 149.5 86.75Z" fill="#F9F7F4"/>
</svg>
