<svg width="157" height="843" viewBox="0 0 157 843" fill="none" xmlns="http://www.w3.org/2000/svg">
<path d="M149 70.597L31.6 70.597L31.6 111.397L9 111.397L9 1.99701L31.6 1.99701L31.6 42.797L149 42.797L149 70.597Z" fill="#F9F7F4"/>
<path d="M151.4 186.872C151.4 200.872 148.4 212.939 142.4 223.072C136.266 233.205 127.8 241.005 117 246.472C106.066 251.939 93.4663 254.672 79.1996 254.672C64.9329 254.672 52.3329 251.939 41.3996 246.472C30.4663 241.005 21.9329 233.205 15.7996 223.072C9.66627 212.939 6.59961 200.872 6.59961 186.872C6.59961 169.939 10.8663 156.005 19.3996 145.072C27.9329 134.139 39.9329 127.339 55.3996 124.672L55.3996 155.472C47.9329 157.072 42.1996 160.605 38.1996 166.072C34.0663 171.405 31.9996 178.472 31.9996 187.272C31.9996 195.405 33.9329 202.405 37.7996 208.272C41.5329 214.005 46.9329 218.405 53.9996 221.472C61.0663 224.539 69.4663 226.072 79.1996 226.072C88.9329 226.072 97.3329 224.539 104.4 221.472C111.333 218.405 116.733 214.005 120.6 208.272C124.333 202.405 126.2 195.405 126.2 187.272C126.2 178.472 124.333 171.405 120.6 166.072C116.733 160.739 111.4 157.205 104.6 155.472L104.6 124.672C119.133 127.339 130.6 134.139 139 145.072C147.266 156.005 151.4 169.939 151.4 186.872Z" fill="#F9F7F4"/>
<path d="M149 393.842L9 342.842L9 311.042L149 260.042L149 289.642L40.8 327.042L149 364.642L149 393.842ZM117.6 371.442L95.8 364.042L95.8 292.042L117.6 284.842L117.6 371.442Z" fill="#F9F7F4"/>
<path d="M149 531.322L9 531.322L9 503.322L104 439.922L9 439.922L8.99999 411.922L149 411.922L149 439.922L54.2 503.322L149 503.322L149 531.322Z" fill="#F9F7F4"/>
<path d="M151.4 623.553C151.4 637.153 148.333 649.153 142.2 659.553C136.066 669.953 127.6 678.153 116.8 684.153C105.866 690.02 93.2663 692.953 78.9996 692.953C64.7329 692.953 52.1996 690.02 41.3996 684.153C30.4663 678.153 21.9329 669.953 15.7996 659.553C9.66627 649.153 6.59961 637.153 6.59961 623.553C6.59961 609.82 9.66627 597.753 15.7996 587.353C21.9329 576.82 30.4663 568.686 41.3996 562.953C52.1996 557.086 64.7329 554.153 78.9996 554.153C93.2663 554.153 105.866 557.086 116.8 562.953C127.6 568.686 136.066 576.82 142.2 587.353C148.333 597.753 151.4 609.82 151.4 623.553ZM126.2 623.553C126.2 615.153 124.266 607.886 120.4 601.753C116.533 595.62 111.133 590.886 104.2 587.553C97.1329 584.22 88.7329 582.553 78.9996 582.553C69.2663 582.553 60.9329 584.22 53.9996 587.553C46.9329 590.886 41.4663 595.62 37.5996 601.753C33.7329 607.886 31.7996 615.153 31.7996 623.553C31.7996 631.82 33.7329 639.02 37.5996 645.153C41.4663 651.153 46.9329 655.886 53.9996 659.353C60.9329 662.686 69.2663 664.353 78.9996 664.353C88.7329 664.353 97.1329 662.686 104.2 659.353C111.133 655.886 116.533 651.153 120.4 645.153C124.266 639.02 126.2 631.82 126.2 623.553Z" fill="#F9F7F4"/>
<path d="M151.4 773.2C151.4 787.2 148.4 799.267 142.4 809.4C136.266 819.533 127.8 827.333 117 832.8C106.066 838.267 93.4663 841 79.1996 841C64.9329 841 52.3329 838.267 41.3996 832.8C30.4663 827.333 21.9329 819.533 15.7996 809.4C9.66627 799.267 6.59961 787.2 6.59961 773.2C6.59961 756.267 10.8663 742.333 19.3996 731.4C27.9329 720.467 39.9329 713.667 55.3996 711L55.3996 741.8C47.9329 743.4 42.1996 746.933 38.1996 752.4C34.0663 757.733 31.9996 764.8 31.9996 773.6C31.9996 781.733 33.9329 788.733 37.7996 794.6C41.5329 800.333 46.9329 804.733 53.9996 807.8C61.0663 810.867 69.4663 812.4 79.1996 812.4C88.9329 812.4 97.3329 810.867 104.4 807.8C111.333 804.733 116.733 800.333 120.6 794.6C124.333 788.733 126.2 781.733 126.2 773.6C126.2 764.8 124.333 757.733 120.6 752.4C116.733 747.067 111.4 743.533 104.6 741.8L104.6 711C119.133 713.667 130.6 720.467 139 731.4C147.266 742.333 151.4 756.267 151.4 773.2Z" fill="#F9F7F4"/>
</svg>
