<svg width="189" height="898" viewBox="0 0 189 898" fill="none" xmlns="http://www.w3.org/2000/svg">
<path d="M184 101.238C184 118.238 180.167 133.238 172.5 146.238C164.833 159.238 154.25 169.488 140.75 176.988C127.083 184.322 111.333 187.988 93.5 187.988C75.6667 187.988 60 184.322 46.5 176.988C32.8333 169.488 22.1667 159.238 14.5 146.238C6.83333 133.238 3 118.238 3 101.238C3 84.0716 6.83333 68.9883 14.5 55.9883C22.1667 42.8216 32.8333 32.655 46.5 25.4883C60 18.155 75.6667 14.4883 93.5 14.4883C111.333 14.4883 127.083 18.1549 140.75 25.4883C154.25 32.6549 164.833 42.8216 172.5 55.9883C180.167 68.9883 184 84.0716 184 101.238ZM152.5 101.238C152.5 90.7383 150.083 81.6549 145.25 73.9883C140.417 66.3216 133.667 60.4049 125 56.2383C116.167 52.0716 105.667 49.9883 93.5 49.9883C81.3333 49.9883 70.9167 52.0716 62.25 56.2383C53.4167 60.4049 46.5833 66.3216 41.75 73.9883C36.9167 81.655 34.5 90.7383 34.5 101.238C34.5 111.572 36.9167 120.572 41.75 128.238C46.5833 135.738 53.4167 141.655 62.25 145.988C70.9167 150.155 81.3333 152.238 93.5 152.238C105.667 152.238 116.167 150.155 125 145.988C133.667 141.655 140.417 135.738 145.25 128.238C150.083 120.572 152.5 111.572 152.5 101.238Z" fill="#2A2A2A"/>
<path d="M181 248.83L6 248.83L6 213.83L181 213.83L181 248.83Z" fill="#2A2A2A"/>
<path d="M181 423.576L6 423.576L6 364.076C6 343.91 9.66667 327.16 17 313.826C24.1667 300.493 34.3333 290.66 47.5 284.326C60.5 277.826 75.8333 274.576 93.5 274.576C111 274.576 126.333 277.826 139.5 284.326C152.667 290.659 162.917 300.493 170.25 313.826C177.417 326.993 181 343.826 181 364.326L181 423.576ZM151 388.576L151 366.076C151 352.076 148.75 341.076 144.25 333.076C139.583 324.909 133 319.076 124.5 315.576C115.833 312.076 105.5 310.326 93.5 310.326C81.5 310.326 71.25 312.076 62.75 315.576C54.0833 319.076 47.4167 324.909 42.75 333.076C38.0833 341.076 35.75 352.076 35.75 366.076L35.75 388.576L151 388.576Z" fill="#2A2A2A"/>
<path d="M184 524.457C184 537.457 181.417 549.207 176.25 559.707C171.083 570.207 163.333 578.624 153 584.957C142.5 591.124 129.25 594.207 113.25 594.207L6 594.207L6 559.207L113.5 559.207C122 559.207 129.083 557.79 134.75 554.957C140.417 552.124 144.75 548.124 147.75 542.957C150.583 537.624 152 531.207 152 523.707C152 516.207 150.583 509.874 147.75 504.707C144.75 499.374 140.417 495.29 134.75 492.457C129.083 489.624 122 488.207 113.5 488.207L6 488.207L5.99999 453.207L113.25 453.207C129.25 453.207 142.5 456.457 153 462.957C163.333 469.29 171.083 477.874 176.25 488.707C181.417 499.54 184 511.457 184 524.457Z" fill="#2A2A2A"/>
<path d="M181 699.604L34.25 699.604L34.25 750.604L6 750.604L5.99999 613.854L34.25 613.854L34.25 664.854L181 664.854L181 699.604Z" fill="#2A2A2A"/>
<path d="M184 827.25C184 839.917 181.833 851.25 177.5 861.25C173.167 871.083 166.833 878.917 158.5 884.75C150.167 890.583 140.083 893.583 128.25 893.75L128.25 856.75C133.25 856.583 137.75 855.333 141.75 853C145.75 850.5 148.917 847.083 151.25 842.75C153.583 838.417 154.75 833.333 154.75 827.5C154.75 822.333 153.917 817.917 152.25 814.25C150.583 810.417 148.25 807.5 145.25 805.5C142.25 803.333 138.583 802.25 134.25 802.25C129.583 802.25 125.583 803.5 122.25 806C118.917 808.333 116.083 811.583 113.75 815.75C111.417 819.917 109.333 824.75 107.5 830.25C105.5 835.583 103.5 841.333 101.5 847.5C97 861.333 91 871.917 83.5 879.25C76 886.417 66 890 53.5 890C42.8333 890 33.75 887.5 26.25 882.5C18.75 877.333 13 870.25 8.99999 861.25C5 852.083 3 841.75 3 830.25C3 818.417 5.08333 808 9.24999 799C13.25 790 19.0833 782.917 26.75 777.75C34.4167 772.417 43.5 769.583 54 769.25L54 806.75C50.1667 806.917 46.6667 808 43.5 810C40.1667 812 37.5 814.75 35.5 818.25C33.5 821.75 32.5 825.917 32.5 830.75C32.3333 834.917 33 838.75 34.5 842.25C35.8333 845.583 37.9167 848.25 40.75 850.25C43.4167 852.25 46.8333 853.25 51 853.25C55.1667 853.25 58.6667 852.25 61.5 850.25C64.1667 848.25 66.5 845.5 68.5 842C70.5 838.333 72.4167 834.083 74.25 829.25C75.9167 824.417 77.6667 819.167 79.5 813.5C82.5 804.667 86.0833 796.583 90.25 789.25C94.25 781.917 99.5 776.083 106 771.75C112.5 767.25 121.083 765 131.75 765C141.083 765 149.75 767.417 157.75 772.25C165.583 777.083 171.917 784.083 176.75 793.25C181.583 802.417 184 813.75 184 827.25Z" fill="#2A2A2A"/>
</svg>
