<svg width="189" height="898" viewBox="0 0 189 898" fill="none" xmlns="http://www.w3.org/2000/svg">
<path d="M184 88.7383C184 105.738 180.167 120.738 172.5 133.738C164.833 146.738 154.25 156.988 140.75 164.488C127.083 171.822 111.333 175.488 93.5 175.488C75.6667 175.488 60 171.822 46.5 164.488C32.8333 156.988 22.1667 146.738 14.5 133.738C6.83333 120.738 3 105.738 3 88.7383C3 71.5716 6.83333 56.4883 14.5 43.4883C22.1667 30.3216 32.8333 20.155 46.5 12.9883C60 5.65495 75.6667 1.98828 93.5 1.98828C111.333 1.98828 127.083 5.65495 140.75 12.9883C154.25 20.1549 164.833 30.3216 172.5 43.4883C180.167 56.4883 184 71.5716 184 88.7383ZM152.5 88.7383C152.5 78.2383 150.083 69.1549 145.25 61.4883C140.417 53.8216 133.667 47.9049 125 43.7383C116.167 39.5716 105.667 37.4883 93.5 37.4883C81.3333 37.4883 70.9167 39.5716 62.25 43.7383C53.4167 47.9049 46.5833 53.8216 41.75 61.4883C36.9167 69.155 34.5 78.2383 34.5 88.7383C34.5 99.0716 36.9167 108.072 41.75 115.738C46.5833 123.238 53.4167 129.155 62.25 133.488C70.9167 137.655 81.3333 139.738 93.5 139.738C105.667 139.738 116.167 137.655 125 133.488C133.667 129.155 140.417 123.238 145.25 115.738C150.083 108.072 152.5 99.0716 152.5 88.7383Z" fill="#F9F7F4"/>
<path d="M181 238.83L6 238.83L6 203.83L181 203.83L181 238.83Z" fill="#F9F7F4"/>
<path d="M181 416.076L6 416.076L6 356.576C6 336.41 9.66667 319.66 17 306.326C24.1667 292.993 34.3333 283.16 47.5 276.826C60.5 270.326 75.8333 267.076 93.5 267.076C111 267.076 126.333 270.326 139.5 276.826C152.667 283.159 162.917 292.993 170.25 306.326C177.417 319.493 181 336.326 181 356.826L181 416.076ZM151 381.076L151 358.576C151 344.576 148.75 333.576 144.25 325.576C139.583 317.409 133 311.576 124.5 308.076C115.833 304.576 105.5 302.826 93.5 302.826C81.5 302.826 71.25 304.576 62.75 308.076C54.0833 311.576 47.4167 317.409 42.75 325.576C38.0833 333.576 35.75 344.576 35.75 358.576L35.75 381.076L151 381.076Z" fill="#F9F7F4"/>
<path d="M184 519.457C184 532.457 181.417 544.207 176.25 554.707C171.083 565.207 163.333 573.624 153 579.957C142.5 586.124 129.25 589.207 113.25 589.207L6 589.207L6 554.207L113.5 554.207C122 554.207 129.083 552.79 134.75 549.957C140.417 547.124 144.75 543.124 147.75 537.957C150.583 532.624 152 526.207 152 518.707C152 511.207 150.583 504.874 147.75 499.707C144.75 494.374 140.417 490.29 134.75 487.457C129.083 484.624 122 483.207 113.5 483.207L6 483.207L5.99999 448.207L113.25 448.207C129.25 448.207 142.5 451.457 153 457.957C163.333 464.29 171.083 472.874 176.25 483.707C181.417 494.54 184 506.457 184 519.457Z" fill="#F9F7F4"/>
<path d="M181 697.104L34.25 697.104L34.25 748.104L6 748.104L5.99999 611.354L34.25 611.354L34.25 662.354L181 662.354L181 697.104Z" fill="#F9F7F4"/>
<path d="M184 827.25C184 839.917 181.833 851.25 177.5 861.25C173.167 871.083 166.833 878.917 158.5 884.75C150.167 890.583 140.083 893.583 128.25 893.75L128.25 856.75C133.25 856.583 137.75 855.333 141.75 853C145.75 850.5 148.917 847.083 151.25 842.75C153.583 838.417 154.75 833.333 154.75 827.5C154.75 822.333 153.917 817.917 152.25 814.25C150.583 810.417 148.25 807.5 145.25 805.5C142.25 803.333 138.583 802.25 134.25 802.25C129.583 802.25 125.583 803.5 122.25 806C118.917 808.333 116.083 811.583 113.75 815.75C111.417 819.917 109.333 824.75 107.5 830.25C105.5 835.583 103.5 841.333 101.5 847.5C97 861.333 91 871.917 83.5 879.25C76 886.417 66 890 53.5 890C42.8333 890 33.75 887.5 26.25 882.5C18.75 877.333 13 870.25 8.99999 861.25C5 852.083 3 841.75 3 830.25C3 818.417 5.08333 808 9.24999 799C13.25 790 19.0833 782.917 26.75 777.75C34.4167 772.417 43.5 769.583 54 769.25L54 806.75C50.1667 806.917 46.6667 808 43.5 810C40.1667 812 37.5 814.75 35.5 818.25C33.5 821.75 32.5 825.917 32.5 830.75C32.3333 834.917 33 838.75 34.5 842.25C35.8333 845.583 37.9167 848.25 40.75 850.25C43.4167 852.25 46.8333 853.25 51 853.25C55.1667 853.25 58.6667 852.25 61.5 850.25C64.1667 848.25 66.5 845.5 68.5 842C70.5 838.333 72.4167 834.083 74.25 829.25C75.9167 824.417 77.6667 819.167 79.5 813.5C82.5 804.667 86.0833 796.583 90.25 789.25C94.25 781.917 99.5 776.083 106 771.75C112.5 767.25 121.083 765 131.75 765C141.083 765 149.75 767.417 157.75 772.25C165.583 777.083 171.917 784.083 176.75 793.25C181.583 802.417 184 813.75 184 827.25Z" fill="#F9F7F4"/>
</svg>
